<?xml version="1.0" encoding="utf-8" standalone="yes"?>
<!DOCTYPE svg PUBLIC "-//W3C//DTD SVG 1.1//EN" "http://www.w3.org/Graphics/SVG/1.1/DTD/svg11.dtd">
<svg xmlns="http://www.w3.org/2000/svg" xmlns:xlink="http://www.w3.org/1999/xlink" xmlns:dc="http://purl.org/dc/elements/1.1/" xmlns:cc="http://web.resource.org/cc/" xmlns:rdf="http://www.w3.org/1999/02/22-rdf-syntax-ns#" xmlns:sodipodi="http://sodipodi.sourceforge.net/DTD/sodipodi-0.dtd" xmlns:inkscape="http://www.inkscape.org/namespaces/inkscape" version="1.1" baseProfile="full" width="480px" height="360px" viewBox="0 0 480 360" preserveAspectRatio="xMidYMid meet" id="svg_document" style="zoom: 1;"><!-- Created with macSVG - https://macsvg.org/ - https://github.com/dsward2/macsvg/ --><title id="svg_document_title">Untitled.svg</title><defs id="svg_document_defs"></defs><g id="main_group"><rect x="4px" height="360px" y="-2px" id="background_rect" width="480px" fill="#90ee90" visibility="hidden"></rect><text stroke="none" style="outline-style:none;" id="text1" stroke-width="1px" x="260.121277px" text-rendering="geometricPrecision" font-family="Noteworthy-Bold" fill="#000000" font-size="32px" y="177.878662px" transform="rotate(-45 258 177.0625)" text-anchor="middle">ERASE</text><path stroke="#000000" id="path6" stroke-width="2px" d="M131,215 C131,215 136,226 140,228 " fill="none" transform=""></path><path stroke="#000000" id="path4" stroke-width="2px" d="M119,219 C119,219 124,240 141,252 " fill="none" transform=""></path><line stroke="#000000" y1="168px" id="line4" x1="159px" stroke-width="7px" y2="259px" x2="254px" transform=""></line><line stroke="#000000" y1="68px" id="line1" x1="248px" stroke-width="5px" y2="81px" x2="257px" transform=""></line><line stroke="#000000" y1="170px" id="line2" x1="341px" stroke-width="5px" y2="80px" x2="256px" transform=""></line></g><path stroke="#000000" id="path1" stroke-width="5px" d="M164,96 C164,96 163,57 198,57 C233,57 305,54 305,94 C305,134 305,258 305,258 C305,258 310,295 211,296 C112,297 163,96 163,96 " fill="none" transform="rotate(45 227.454315 176.476349)"></path><path stroke="#000000" id="path3" stroke-width="2px" d="M113,217 C113,217 127,227 147,193 " fill="none" transform=""></path><path stroke="#000000" id="path5" stroke-width="2px" d="M126,218 C126,218 131,232 140,238 " fill="none" transform=""></path><path stroke="#000000" id="path2" stroke-width="2px" d="M141,256 C141,255 128,207 168,157 " fill="none" transform=""></path><line stroke="#000000" y1="149px" id="line3" x1="144px" stroke-width="7px" y2="170px" x2="160px" transform=""></line><line stroke="#000000" y1="81px" id="line5" x1="257px" stroke-width="5px" y2="167px" x2="158px" transform=""></line></svg>