<?xml version="1.0" encoding="utf-8" standalone="yes"?>
<!DOCTYPE svg PUBLIC "-//W3C//DTD SVG 1.1//EN" "http://www.w3.org/Graphics/SVG/1.1/DTD/svg11.dtd">
<svg xmlns="http://www.w3.org/2000/svg" xmlns:xlink="http://www.w3.org/1999/xlink" xmlns:dc="http://purl.org/dc/elements/1.1/" xmlns:cc="http://web.resource.org/cc/" xmlns:rdf="http://www.w3.org/1999/02/22-rdf-syntax-ns#" xmlns:sodipodi="http://sodipodi.sourceforge.net/DTD/sodipodi-0.dtd" xmlns:inkscape="http://www.inkscape.org/namespaces/inkscape" version="1.1" baseProfile="full" width="480px" height="360px" viewBox="0 0 480 360" preserveAspectRatio="xMidYMid meet" id="svg_document" style="zoom: 1;"><!-- Created with macSVG - https://macsvg.org/ - https://github.com/dsward2/macsvg/ --><title id="svg_document_title">Untitled.svg</title><defs id="svg_document_defs"></defs><g id="main_group"><rect x="4px" height="360px" y="1.25px" id="background_rect" width="480px" fill="#90ee90" visibility="hidden"></rect><line stroke="#000000" y1="115px" id="line1" x1="205px" stroke-width="2px" y2="156px" x2="210px" transform=""></line><line stroke="#000000" y1="191.5px" id="line4" x1="128.5px" stroke-width="5px" y2="218.5px" x2="156.5px" transform=""></line><path stroke="#000000" id="path2" stroke-width="5px" d="M218,277.5 C218,277.5 215.5,266.5 225.5,256 C235.5,245.5 250,235 252.5,226.5 C255,218 246,215 239,216 C232,217 231,218 229,219 C226,221.5 214,235.5 208.5,239.5 C203,243.5 194.5,253.5 189,249 C183.5,244.5 185,239.5 191.5,234.5 C198,229.5 208.5,222.5 200.5,227.5 " fill="none" transform=""></path><line stroke="#000000" y1="128px" stroke-width="2px" x1="219px" id="line3" y2="169px" x2="224px" transform=""></line><line stroke="#000000" y1="144px" stroke-width="2px" x1="235px" id="line5" y2="185px" x2="240px" transform=""></line><line stroke="#000000" y1="158px" stroke-width="2px" x1="249px" id="line6" y2="199px" x2="254px" transform=""></line><line stroke="#000000" y1="173px" stroke-width="2px" x1="263px" id="line7" y2="214px" x2="268px" transform=""></line><line stroke="#000000" y1="185px" stroke-width="2px" x1="276px" id="line8" y2="226px" x2="281px" transform=""></line></g><rect stroke="#000000" x="125.322342px" height="130px" y="88.393387px" id="rect1" stroke-width="5px" width="130px" fill="none" transform="rotate(45 136 201)"></rect><path stroke="#000000" id="path5" stroke-width="5px" d="M351,62 C351,62 325,45 312,59 C299,73 298,95 281,104 C264,113 256,113 246,111 C236,109 223,99 208,115 " fill="none" transform=""></path><path stroke="#000000" id="path6" stroke-width="5px" d="M351,62 C351,62 372,74 363,88 C354,102 318,118 305,133 C292,148 302,162 303,165 C304,168 318,183 300,205 " fill="none" transform=""></path><line stroke="#000000" y1="135px" id="line2" x1="189px" stroke-width="3px" y2="228px" x2="280px" transform=""></line><path stroke="#000000" id="path1" stroke-width="5px" d="M154,216 C154,216 165,231 181,215 C197,199 207,199 211,203 C215,207 215,210 214,214 C213,218 201.5,227.5 201.5,227.5 " fill="none" transform=""></path><path stroke="#000000" id="path3" stroke-width="5px" d="M223.5,279.75 C223.5,286.5 218,279 218,275.5 " fill="none" transform=""></path><text stroke="none" style="outline-style:none;" id="text1" stroke-width="1px" x="101.334534px" text-rendering="geometricPrecision" font-family="Noteworthy-Bold" fill="#000000" font-size="32px" y="175.689865px" transform="rotate(-45 78 101.640625)" text-anchor="middle">COLOR</text></svg>