<?xml version="1.0" encoding="utf-8" standalone="yes"?>
<!DOCTYPE svg PUBLIC "-//W3C//DTD SVG 1.1//EN" "http://www.w3.org/Graphics/SVG/1.1/DTD/svg11.dtd">
<svg xmlns="http://www.w3.org/2000/svg" xmlns:xlink="http://www.w3.org/1999/xlink" xmlns:dc="http://purl.org/dc/elements/1.1/" xmlns:cc="http://web.resource.org/cc/" xmlns:rdf="http://www.w3.org/1999/02/22-rdf-syntax-ns#" xmlns:sodipodi="http://sodipodi.sourceforge.net/DTD/sodipodi-0.dtd" xmlns:inkscape="http://www.inkscape.org/namespaces/inkscape" version="1.1" baseProfile="full" width="350px" height="300px" viewBox="0 0 350 300" preserveAspectRatio="xMidYMid meet" id="svg_document" style="zoom: 1;"><!-- Created with macSVG - https://macsvg.org/ - https://github.com/dsward2/macsvg/ --><title id="svg_document_title">Untitled.svg</title><defs id="svg_document_defs"><rect x="4px" height="360px" y="1.25px" id="background_rect" width="480px" fill="#90ee90" visibility="hidden"></rect></defs><g id="main_group"><rect stroke="#000000" x="60.268486px" height="130px" y="101.121307px" id="rect1" stroke-width="5px" width="130px" fill="none" transform="rotate(45 136 201)"></rect><path stroke="#000000" id="path5" stroke-width="5px" d="M296.552887,24.523338 C296.552887,24.523338 270.552887,7.523334 257.552887,21.523342 C244.55278,35.523338 243.55278,57.523338 226.552811,66.523338 C209.552841,75.523338 201.55278,75.523338 191.55278,73.523338 C181.55278,71.523338 168.55278,61.523338 153.55278,77.523338 " fill="none" transform=""></path><path stroke="#000000" id="path6" stroke-width="5px" d="M296.552887,24.523338 C296.552887,24.523338 317.552887,36.523338 308.552887,50.523338 C299.552887,64.523338 263.552887,80.523338 250.552795,95.523338 C237.55275,110.523338 247.55278,124.523323 248.55278,127.523346 C249.55278,130.523346 263.552887,145.523346 245.55278,167.523346 " fill="none" transform=""></path><line stroke="#000000" y1="97.523338px" id="line2" x1="134.55278px" stroke-width="3px" y2="190.523346px" x2="225.552811px" transform=""></line><path stroke="#000000" id="path1" stroke-width="5px" d="M99.552773,178.523346 C99.552773,178.523346 110.552773,193.523346 126.55278,177.523346 C142.55278,161.523346 152.55278,161.523346 156.55278,165.523346 C160.55278,169.523346 160.55278,172.523346 159.55278,176.523346 C158.55278,180.523346 147.05278,190.023346 147.05278,190.023346 " fill="none" transform=""></path><path stroke="#000000" id="path3" stroke-width="5px" d="M169.05278,242.273285 C169.05278,249.023285 163.55278,241.523285 163.55278,238.023315 " fill="none" transform=""></path><text stroke="none" style="outline-style:none;" id="text1" stroke-width="1px" x="94.263451px" text-rendering="geometricPrecision" font-family="Noteworthy-Bold" fill="#000000" font-size="32px" y="113.464447px" transform="rotate(-45 78 101.640625)" text-anchor="middle">PAINT</text><line stroke="#000000" y1="77.523338px" id="line1" x1="150.55278px" stroke-width="2px" y2="118.523338px" x2="155.55278px" transform=""></line><line stroke="#000000" y1="154.023346px" id="line4" x1="74.052757px" stroke-width="5px" y2="181.023346px" x2="102.052773px" transform=""></line><path stroke="#000000" id="path2" stroke-width="5px" d="M163.55278,240.023285 C163.55278,240.023285 161.05278,229.023315 171.05278,218.523346 C181.05278,208.023346 195.55278,197.523346 198.05278,189.023346 C200.55278,180.523346 191.55278,177.523346 184.55278,178.523346 C177.55278,179.523346 176.55278,180.523346 174.55278,181.523346 C171.55278,184.023346 159.55278,198.023346 154.05278,202.023346 C148.55278,206.023346 140.05278,216.023346 134.55278,211.523346 C129.05278,207.023346 130.55278,202.023346 137.05278,197.023346 C143.55278,192.023346 154.05278,185.023346 146.05278,190.023346 " fill="none" transform=""></path><line stroke="#000000" y1="90.523338px" stroke-width="2px" x1="164.55278px" id="line3" y2="131.523346px" x2="169.55278px" transform=""></line><line stroke="#000000" y1="106.523338px" stroke-width="2px" x1="180.55278px" id="line5" y2="147.523346px" x2="185.55278px" transform=""></line><line stroke="#000000" y1="120.523338px" stroke-width="2px" x1="194.55278px" id="line6" y2="161.523346px" x2="199.55278px" transform=""></line><line stroke="#000000" y1="135.523346px" stroke-width="2px" x1="208.552811px" id="line7" y2="176.523346px" x2="213.55278px" transform=""></line><line stroke="#000000" y1="147.523346px" stroke-width="2px" x1="221.552872px" id="line8" y2="188.523346px" x2="226.552811px" transform=""></line></g></svg>